Coordinates
version=1
nRows=10
nColumns=33
inDegrees=yes

Units are S.I. units (second, meters, Newtons, ...)
Angles are in degrees.

endheader
time	ground_thorax_rot_x	ground_thorax_rot_y	ground_thorax_rot_z	ground_thorax_tx	ground_thorax_ty	ground_thorax_tz	clav_prot_r	clav_elev_r	scapula_abduction_r	scapula_elevation_r	scapula_upward_rot_r	scapula_winging_r	shoulder_elv_r	plane_of_elev_r	axial_rot_r	elbow_flexion_r	pro_sup_r	wrist_flex_r	wrist_dev_r	clav_prot_l	clav_elev_l	scapula_abduction_l	scapula_elevation_l	scapula_upward_rot_l	scapula_winging_l	shoulder_elv_l	plane_of_elev_l	axial_rot_l	elbow_flexion_l	pro_sup_l	wrist_flex_l	wrist_dev_l
      6.35000000	    -41.36460813	     -8.92380198	      6.20914735	   -233.10531165	    859.67004816	     -5.69929248	      9.73444229	    -45.00000000	     33.34132313	    -45.00000000	    -45.00000000	   3499.32583929	  -2270.81517321	    151.16072849	    -89.06795114	     13.11713896	     32.60750859	     18.48218536	      7.20358991	     15.27119517	     38.29514275	    -34.99600997	    -45.00000000	    -45.00000000	  -2435.38789132	   -459.07370234	    141.10908264	    156.80408096	     10.45907696	     37.98382454	      8.43007809	    -22.45030646
      6.36000000	    -41.31357055	     -8.58491596	      6.06831015	   -233.78518805	    861.67260249	     -5.86081650	      9.73096038	    -45.00000000	     33.44076688	    -45.00000000	    -45.00000000	   3499.26186832	  -2270.73522036	    151.03421482	    -90.06893528	     13.29199996	     33.84353460	     18.49501980	      7.02852224	     14.57052618	     38.37589352	    -35.13021587	    -45.00000000	    -45.00000000	  -2435.09084862	   -459.00089403	    141.03669832	    156.26665309	     10.59690334	     37.50078787	      8.18342237	    -22.54536577
      6.37000000	    -41.20907678	     -8.55899534	      6.11852553	   -234.21564856	    863.52331661	     -5.99871321	      9.88925795	    -45.00000000	     33.56922003	    -45.00000000	    -45.00000000	   3499.18412247	  -2270.58600916	    150.94388908	    -90.20902963	     13.45300870	     34.99064973	     18.43686458	      6.93969736	     14.89001495	     38.22378235	    -34.99234538	    -45.00000000	    -45.00000000	  -2435.10497518	   -458.90542984	    141.16246754	    156.17915199	     10.64886306	     37.18009304	      8.28637755	    -22.50902706
      6.38000000	    -41.13018203	     -8.43842570	      6.13380197	   -234.41136156	    865.23077346	     -6.11871784	      9.88821414	    -45.00000000	     33.65833925	    -45.00000000	    -45.00000000	   3499.16282617	  -2270.53560060	    150.87628859	    -90.60316960	     13.52315856	     35.94697913	     18.38630196	      6.80317560	     14.75565061	     38.21473306	    -35.01180230	    -45.00000000	    -45.00000000	  -2434.97446036	   -458.87002762	    141.18431417	    155.99752656	     10.62184058	     36.98779426	      8.26920891	    -22.54586124
      6.39000000	    -41.07336036	     -8.06730955	      5.91695447	   -234.38887775	    866.79569312	     -6.22517437	     10.07046065	    -45.00000000	     33.61526869	    -45.00000000	    -45.00000000	   3498.96782072	  -2270.53553651	    150.42105742	    -91.01809046	     13.61927670	     36.64592642	     18.20385193	      6.51632779	     14.81808297	     38.24989340	    -35.10165709	    -45.00000000	    -45.00000000	  -2434.91229457	   -458.70179635	    141.02234834	    155.67875241	     10.69039489	     36.91685846	      8.35304683	    -22.59608278
      6.40000000	    -40.97253284	     -8.41183833	      6.23999386	   -234.16323585	    868.22959905	     -6.32231760	      9.97749709	    -45.00000000	     33.92162438	    -45.00000000	    -45.00000000	   3499.14641061	  -2270.19072678	    150.68719722	    -91.20448888	     13.78816636	     37.34514204	     18.38443196	      6.64485569	     14.81081401	     38.14053885	    -35.05475599	    -45.00000000	    -45.00000000	  -2434.75785157	   -458.81986500	    141.34661084	    155.56166051	     10.80913497	     36.85661278	      8.23259371	    -22.59824722
      6.41000000	    -40.92109238	     -7.91319991	      5.98025058	   -233.74953582	    869.53914412	     -6.41061918	     10.21188092	    -45.00000000	     33.84638587	    -45.00000000	    -45.00000000	   3498.90664625	  -2270.36093461	    150.19935383	    -91.53970317	     13.76169307	     37.98178910	     18.08361160	      6.26653025	     14.77150825	     38.21005059	    -35.17430889	    -45.00000000	    -45.00000000	  -2434.73253819	   -458.56683245	    141.10044642	    155.20729974	     10.94319811	     36.85833013	      8.28505534	    -22.62705548
      6.42000000	    -40.80337739	     -8.32209743	      6.34686304	   -233.16356758	    870.71794500	     -6.48847775	      9.92816213	    -45.00000000	     33.94101389	    -45.00000000	    -45.00000000	   3499.31233773	  -2269.62193002	    150.50507936	    -91.58796577	     14.14991846	     38.62155870	     18.50867432	      6.55249427	     14.92431751	     38.12860070	    -35.32805133	    -45.00000000	    -45.00000000	  -2434.40630975	   -458.90739974	    141.48498642	    155.20948403	     11.24966906	     36.83082570	      8.14599920	    -22.70542770
      6.43000000	    -40.84355315	     -8.08107863	      6.33216859	   -232.41998497	    871.78907663	     -6.55206575	     10.18487012	    -45.00000000	     34.26682128	    -45.00000000	    -45.00000000	   3498.90829623	  -2270.06197488	    150.22961366	    -92.02871173	     14.18956466	     39.32360389	     18.19901330	      6.15965953	     14.76774712	     38.17319891	    -35.29572428	    -45.00000000	    -45.00000000	  -2434.54649303	   -458.47959006	    141.33122578	    155.03239246	     11.08068098	     36.89451459	      8.12417800	    -22.58133940
      6.44000000	    -40.86478199	     -7.89923004	      6.24921998	   -231.54004313	    872.75165439	     -6.59738711	     10.27735030	    -45.00000000	     33.96226064	    -45.00000000	    -45.00000000	   3499.21587139	  -2269.83804800	    150.07663301	    -92.23652196	     14.18310159	     40.01412672	     18.30886576	      6.19371177	     14.82344835	     38.05980452	    -35.29801017	    -45.00000000	    -45.00000000	  -2434.52392294	   -458.18786649	    141.17658502	    154.71870370	     11.22391528	     36.98769610	      8.23118656	    -22.77038087
